# xmcd
#
# Track frame offsets:
# 150
# 14255
# 27133
# 45177
# 58304
# 79084
# 93942
# 110693
# 124569
# 148629
# 162265
# 172693
# 186088
# 211966
# 224567
# 252869
#
# Disc length: 3678 seconds
#
#
# Revision: 0
# Processed by: cddbd v1.5.2PL0 Copyright (c) Steve Scherf et al.
# Submitted via: FreeRIP 2.30 
#
DISCID=d20e5c10
DTITLE=Calvary Quartet - Calvary Quartet Live
DYEAR=2006
DGENRE=Gospel
TTITLE0=Send The Light
TTITLE1=Grace and Glory
TTITLE2=He Said I Thirst
TTITLE3=Just A Little Talk
TTITLE4=I Pleade Allegiance
TTITLE5=Canaan Land is Just in Sight
TTITLE6=Till the Storm Passes By
TTITLE7=I'm Free
TTITLE8=How Deep The Father's Love 
TTITLE9=Jesus Opened Up A Way
TTITLE10=O What A Saviour
TTITLE11=When I Survey
TTITLE12=Psalm 23
TTITLE13=Campmeeting Days
TTITLE14=Then Came The Morning
TTITLE15=Sinner Saved By Grace
EXTD=
EXTT0=
EXTT1=
EXTT2=
EXTT3=
EXTT4=
EXTT5=
EXTT6=
EXTT7=
EXTT8=
EXTT9=
EXTT10=
EXTT11=
EXTT12=
EXTT13=
EXTT14=
EXTT15=
PLAYORDER=
